<mxfile host="app.diagrams.net" modified="2022-03-13T14:27:55.787Z" agent="5.0 (Windows NT 10.0; Win64; x64) AppleWebKit/537.36 (KHTML, like Gecko) Chrome/99.0.4844.51 Safari/537.36 Edg/99.0.1150.39" etag="-Ta9HMrs0bhVR7xmMntD" version="16.6.4" type="github">
  <diagram id="qmg57KgzavpGshSfio9r" name="Page-1">
    <mxGraphModel dx="1038" dy="539" grid="1" gridSize="10" guides="1" tooltips="1" connect="1" arrows="1" fold="1" page="1" pageScale="1" pageWidth="1169" pageHeight="827" math="0" shadow="0">
      <root>
        <mxCell id="0" />
        <mxCell id="1" parent="0" />
        <mxCell id="dZeE24-flML0XhvIdgZZ-1" value="&lt;font data-font-src=&quot;https://fonts.googleapis.com/css?family=Ubuntu+Mono&quot;&gt;Hello World! -&amp;gt;&lt;/font&gt;" style="text;html=1;align=center;verticalAlign=middle;resizable=0;points=[];autosize=1;strokeColor=none;fillColor=none;fontFamily=JetBrains Mono;fontSource=https%3A%2F%2Ffonts.googleapis.com%2Fcss%3Ffamily%3DJetBrains%2BMono;" parent="1" vertex="1">
          <mxGeometry x="720" y="90" width="120" height="20" as="geometry" />
        </mxCell>
        <mxCell id="71GDjubmxw82O_QwIKZ8-1" value="Prova! =&amp;gt;" style="text;html=1;align=center;verticalAlign=middle;resizable=0;points=[];autosize=1;strokeColor=none;fillColor=none;fontFamily=JetBrains Mono;fontSource=https%3A%2F%2Ffonts.googleapis.com%2Fcss%3Ffamily%3DJetBrains%2BMono;" parent="1" vertex="1">
          <mxGeometry x="720" y="70" width="70" height="20" as="geometry" />
        </mxCell>
        <mxCell id="71GDjubmxw82O_QwIKZ8-2" value="" style="triangle;whiteSpace=wrap;html=1;fontFamily=Ubuntu Mono;fontSource=https%3A%2F%2Ffonts.googleapis.com%2Fcss%3Ffamily%3DUbuntu%2BMono;rotation=-90;" parent="1" vertex="1">
          <mxGeometry x="521.25" y="118.75" width="37.5" height="42.5" as="geometry" />
        </mxCell>
        <mxCell id="QwBDJHDX479-SYb9mAhA-2" value="&lt;br&gt;&lt;font face=&quot;JetBrains Mono&quot;&gt;&lt;br&gt;&lt;/font&gt;" style="text;html=1;align=center;verticalAlign=middle;resizable=0;points=[];autosize=1;strokeColor=none;fillColor=none;" vertex="1" parent="1">
          <mxGeometry x="780" y="15" width="20" height="30" as="geometry" />
        </mxCell>
      </root>
    </mxGraphModel>
  </diagram>
</mxfile>
